<svg width="56" height="56" viewBox="0 0 56 56" fill="none" xmlns="http://www.w3.org/2000/svg">
<g transform="translate(4, 10)">
<path d="M32.9242 13.4492H6.96715C6.4496 13.4492 5.95196 13.6592 5.5837 14.0292L0.577416 19.0492C-0.656739 20.2892 0.219113 22.4192 1.96086 22.4192H6.15101H15.0787H41.0358C41.5533 22.4192 42.051 22.2092 42.4192 21.8392L47.4156 16.8192C48.6497 15.5792 47.7739 13.4492 46.0321 13.4492H41.842H32.9142H32.9242Z" fill="#017AFF"/>
<path d="M15.0785 26.9004H6.96696C6.44941 26.9004 5.95177 27.1104 5.58352 27.4804L0.587181 32.5004C-0.646973 33.7404 0.228879 35.8704 1.97063 35.8704H6.16078H15.0885H23.2001C23.7176 35.8704 24.2153 35.6604 24.5835 35.2904L29.5798 30.2704C30.814 29.0304 29.9382 26.9004 28.1964 26.9004H24.0063H15.0785Z" fill="#017AFF"/>
<path d="M15.0787 8.97H41.0358C41.5533 8.97 42.051 8.76 42.4192 8.39L47.4156 3.37C48.6597 2.12 47.7838 0 46.0421 0H41.8519H32.9242H6.96715C6.4496 0 5.95196 0.21 5.5837 0.58L0.577416 5.6C-0.656738 6.84 0.219113 8.97 1.96086 8.97H6.15101H15.0787Z" fill="#017AFF"/>
</g>
</svg>
